<svg width="22" height="22" viewBox="0 0 22 22" fill="none" xmlns="http://www.w3.org/2000/svg">
<path d="M11.5 5.10938C14.4531 5.10938 16.8906 7.54688 16.8906 10.5C16.8906 13.5 14.4531 15.8906 11.5 15.8906C8.5 15.8906 6.10938 13.5 6.10938 10.5C6.10938 7.54688 8.5 5.10938 11.5 5.10938ZM11.5 14.0156C13.4219 14.0156 14.9688 12.4688 14.9688 10.5C14.9688 8.57812 13.4219 7.03125 11.5 7.03125C9.53125 7.03125 7.98438 8.57812 7.98438 10.5C7.98438 12.4688 9.57812 14.0156 11.5 14.0156ZM18.3438 4.92188C18.3438 5.625 17.7812 6.1875 17.0781 6.1875C16.375 6.1875 15.8125 5.625 15.8125 4.92188C15.8125 4.21875 16.375 3.65625 17.0781 3.65625C17.7812 3.65625 18.3438 4.21875 18.3438 4.92188ZM21.9062 6.1875C22 7.92188 22 13.125 21.9062 14.8594C21.8125 16.5469 21.4375 18 20.2188 19.2656C19 20.4844 17.5 20.8594 15.8125 20.9531C14.0781 21.0469 8.875 21.0469 7.14062 20.9531C5.45312 20.8594 4 20.4844 2.73438 19.2656C1.51562 18 1.14062 16.5469 1.04688 14.8594C0.953125 13.125 0.953125 7.92188 1.04688 6.1875C1.14062 4.5 1.51562 3 2.73438 1.78125C4 0.5625 5.45312 0.1875 7.14062 0.09375C8.875 0 14.0781 0 15.8125 0.09375C17.5 0.1875 19 0.5625 20.2188 1.78125C21.4375 3 21.8125 4.5 21.9062 6.1875ZM19.6562 16.6875C20.2188 15.3281 20.0781 12.0469 20.0781 10.5C20.0781 9 20.2188 5.71875 19.6562 4.3125C19.2812 3.42188 18.5781 2.67188 17.6875 2.34375C16.2812 1.78125 13 1.92188 11.5 1.92188C9.95312 1.92188 6.67188 1.78125 5.3125 2.34375C4.375 2.71875 3.67188 3.42188 3.29688 4.3125C2.73438 5.71875 2.875 9 2.875 10.5C2.875 12.0469 2.73438 15.3281 3.29688 16.6875C3.67188 17.625 4.375 18.3281 5.3125 18.7031C6.67188 19.2656 9.95312 19.125 11.5 19.125C13 19.125 16.2812 19.2656 17.6875 18.7031C18.5781 18.3281 19.3281 17.625 19.6562 16.6875Z" fill="#ED8A23"/>
</svg>
