<svg width="70" height="50" viewBox="0 0 70 50" fill="none" xmlns="http://www.w3.org/2000/svg">
<g clip-path="url(#clip0_1235_116)">
<path d="M51.707 23.8551C48.4181 23.8551 45.1083 23.876 41.7986 23.8551C40.8043 23.873 39.8136 23.7325 38.8635 23.4388C36.8236 22.7727 35.4705 21.4197 34.846 19.3797C34.0758 16.861 34.7003 14.6545 36.5529 12.8227C37.4532 11.9401 38.6137 11.3708 39.8627 11.199C40.1125 11.1574 40.1749 11.0533 40.1749 10.8035C40.2166 9.20068 40.6953 7.76438 41.8402 6.6195C42.4009 6.03346 43.077 5.56997 43.8258 5.25827C44.5746 4.94658 45.3798 4.79344 46.1907 4.80851C46.8588 4.80923 47.5214 4.92906 48.1474 5.16238C48.3348 5.22483 48.4181 5.20401 48.5013 5.01667C49.0416 3.9565 49.793 3.01808 50.7095 2.25916C51.6259 1.50023 52.6879 0.936855 53.8302 0.603679C56.7861 -0.270593 59.5338 0.22899 62.0109 2.14406C63.7929 3.52474 64.9775 5.53633 65.3206 7.76438C65.3862 8.17055 65.421 8.5811 65.4247 8.99252C65.4202 9.09759 65.4476 9.20157 65.5033 9.29075C65.5591 9.37993 65.6405 9.45013 65.737 9.4921C67.0899 10.2234 68.165 11.3789 68.7969 12.781C70.1083 15.6328 69.8585 18.3805 67.9434 20.8784C66.4239 22.856 64.3631 23.8343 61.886 23.8551C58.493 23.876 55.1 23.8551 51.707 23.8551ZM43.3598 13.4888L42.319 13.4263C41.3198 13.3847 40.3415 13.4471 39.4464 13.9884C38.1974 14.7585 37.2815 15.7785 37.2399 17.3397C37.2062 17.9238 37.3178 18.5072 37.5649 19.0376C37.8119 19.5679 38.1866 20.0288 38.6554 20.3789C39.3423 20.9201 40.1541 21.1074 41.0076 21.1491C41.861 21.1907 42.7145 21.1907 43.5679 21.1907H61.8235C62.7668 21.1878 63.6906 20.9223 64.4915 20.4239C65.2923 19.9256 65.9386 19.214 66.3578 18.3691C66.7771 17.5241 66.9527 16.5791 66.8651 15.6399C66.7775 14.7007 66.4301 13.8045 65.8618 13.0516C65.1665 12.1712 64.2129 11.5306 63.135 11.2198C62.5521 11.0533 62.5521 11.0325 62.6562 10.4288C62.8263 9.50364 62.7979 8.55287 62.5729 7.63948C62.2274 6.23029 61.4034 4.98471 60.2417 4.11535C59.0801 3.246 57.6527 2.80676 56.2032 2.87262C54.2465 2.95588 52.6437 3.80934 51.3323 5.26646C50.5669 6.09646 50.0228 7.10585 49.7503 8.20151L49.5629 8.11825C49.1258 7.93091 48.7095 7.72274 48.2723 7.55622C47.0858 7.1399 45.9201 7.03582 44.7961 7.68111C43.672 8.32641 42.9226 9.34639 42.8394 10.7202C42.7905 11.6713 42.9689 12.6204 43.3598 13.4888Z" fill="black"/>
<path d="M34.2633 47.8351V49.6045H31.4531V27.7061H34.2425V36.5112C34.5755 36.2406 34.8253 35.9908 35.0751 35.7827C36.3888 34.729 38.0614 34.2287 39.7379 34.388C41.5 34.5355 43.1598 35.2769 44.4456 36.4908C45.7313 37.7047 46.5669 39.3192 46.8153 41.0699C47.0027 42.6727 46.857 44.2339 46.0868 45.6702C44.9211 47.8767 43.1101 49.3547 40.6122 49.8543C39.051 50.1665 37.4898 50.0416 36.0743 49.2298C35.588 48.9276 35.1221 48.5938 34.6796 48.2306C34.5303 48.1103 34.3911 47.978 34.2633 47.8351ZM34.2633 41.9858C34.2633 42.756 34.2216 43.3805 34.4506 43.9425C35.8245 47.2106 39.6338 47.9808 42.0693 46.0866C43.6305 44.8792 44.2341 43.2764 43.9635 41.3613C43.7508 40.2107 43.1442 39.17 42.2478 38.4179C41.3513 37.6658 40.2211 37.2493 39.051 37.2398C37.3649 37.2398 36.0535 37.9891 35.0543 39.3006C34.4298 40.154 34.1176 41.0907 34.2633 41.9858Z" fill="black"/>
<path d="M24.2719 8.20218V7.24464H26.749C27.1236 7.24464 27.1236 7.24464 27.1236 7.61933V21.0873C27.1236 21.2954 27.082 21.3787 26.853 21.3787H24.5425C24.3551 21.3787 24.2718 21.3163 24.2927 21.1289V19.5885L24.0221 19.8383C22.9396 20.8791 21.6699 21.566 20.1711 21.6909C18.6335 21.8613 17.0815 21.5407 15.7373 20.775C13.999 19.8338 12.6877 18.2618 12.0737 16.3829C11.7067 15.2412 11.607 14.0305 11.7823 12.8441C11.9457 11.4345 12.5173 10.1033 13.4267 9.014C14.7381 7.43199 16.4034 6.43282 18.485 6.18303C19.6242 6.01148 20.7886 6.14804 21.8572 6.57853C22.6622 6.90857 23.3969 7.38897 24.0221 7.99402L24.2719 8.20218ZM24.251 13.8641C24.251 13.4894 24.3343 13.0731 24.251 12.6776C24.0929 12.0235 23.8003 11.4094 23.3919 10.8745C22.9835 10.3395 22.4683 9.89543 21.879 9.57042C21.2897 9.24541 20.6392 9.04661 19.9689 8.98665C19.2985 8.9267 18.6231 9.0069 17.9854 9.22216C14.3426 10.3879 13.4892 14.8217 15.9455 17.3404C16.4314 17.84 17.0176 18.2309 17.6656 18.4875C18.3135 18.7441 19.0085 18.8605 19.7047 18.8291C20.4009 18.7976 21.0825 18.619 21.7047 18.305C22.3269 17.991 22.8755 17.5487 23.3143 17.0073C24.0637 16.1123 24.4592 15.0923 24.251 13.8641Z" fill="black"/>
<path d="M63.9886 37.5313L55.0793 46.4406C55.4268 46.7375 55.8539 46.9257 56.3075 46.9818C57.5171 47.2438 58.7788 47.1125 59.9086 46.6071C60.6144 46.2268 61.2261 45.6934 61.6988 45.0459C61.7244 45.0032 61.7583 44.9659 61.7985 44.9365C61.8387 44.907 61.8843 44.8858 61.9328 44.8741C61.9812 44.8625 62.0315 44.8607 62.0807 44.8687C62.1299 44.8768 62.177 44.8945 62.2192 44.921L64.6963 45.8161C62.9894 48.5638 60.4707 50.2499 56.9111 49.9585C53.3516 49.6671 50.3749 46.5238 49.9794 43.339C49.459 39.3423 51.7071 36.1783 54.7255 34.9502C57.7438 33.722 61.678 34.4714 63.9886 37.5313ZM59.8254 37.6146C59.4923 37.2607 58.0976 37.1775 57.0777 37.2815C56.0577 37.3856 54.7671 38.0517 53.9136 39.0093C52.7688 40.279 52.3316 43.4014 53.1434 44.2757L59.8254 37.6146Z" fill="black"/>
<path d="M2.65764 36.8295L2.84499 36.4548C3.42783 35.2267 4.427 34.6022 5.78004 34.4773C7.13308 34.3524 7.96572 34.5814 8.92325 35.2267C9.88079 35.872 10.5469 36.8711 10.9216 38.0368C11.1468 38.7434 11.2592 39.481 11.2546 40.2225V49.0485C11.2755 49.2775 11.1922 49.3607 10.9424 49.3607C10.2555 49.3399 9.54773 49.3607 8.83999 49.3607C8.4653 49.3607 8.4653 49.3607 8.4653 48.986V40.5556C8.4653 39.8895 8.38204 39.2858 8.00735 38.7238C7.07063 37.2458 5.05148 36.8087 3.67763 37.8287C3.31943 38.1075 3.00386 38.4371 2.74091 38.807C2.65147 38.9725 2.61513 39.1614 2.63683 39.3482C2.61601 42.5123 2.63683 45.6763 2.63683 48.8403C2.62632 48.9302 2.62632 49.021 2.63683 49.1109C2.63683 49.2775 2.57438 49.3607 2.38703 49.3607C1.61684 49.3399 0.825834 49.3399 0.0348268 49.3607C0.00395361 49.364 -0.0272608 49.3603 -0.0565322 49.35C-0.0858037 49.3396 -0.112391 49.3229 -0.134344 49.3009C-0.156298 49.279 -0.173062 49.2524 -0.18341 49.2231C-0.193758 49.1938 -0.197427 49.1626 -0.194149 49.1318C-0.183668 49.0697 -0.183668 49.0064 -0.194149 48.9444V35.6222C-0.194149 35.2475 -0.173332 35.2475 0.201355 35.2475H2.3454C2.57438 35.2475 2.63683 35.3308 2.63683 35.5389C2.63683 35.7471 2.61601 36.4132 2.61601 36.8503L2.65764 36.8295Z" fill="black"/>
<path d="M15.4658 35.533H18.276V43.8594C18.276 45.4206 19.2127 46.5863 20.7323 46.9193C21.1831 47.0224 21.6513 47.0227 22.1023 46.9202C22.5532 46.8176 22.9753 46.6149 23.3372 46.327C23.6991 46.039 23.9916 45.6733 24.1929 45.257C24.3941 44.8406 24.4991 44.3843 24.5 43.9218V35.5538H27.0187C27.2269 35.5538 27.2893 35.6162 27.2893 35.8244V44.0675C27.3082 45.4286 26.8518 46.7536 25.9987 47.8144C25.0972 48.9368 23.787 49.6556 22.3559 49.8127C21.0653 49.9584 19.8164 49.8544 18.6298 49.2715C17.8195 48.8984 17.1162 48.3271 16.585 47.6104C16.0538 46.8937 15.7119 46.0546 15.5907 45.1708C15.5147 44.6749 15.4798 44.1736 15.4866 43.672C15.4658 41.1116 15.4658 38.5305 15.4658 35.9701V35.533Z" fill="black"/>
<path d="M3.19511 19.1298H11.0427V21.94H0.738829C0.384957 21.94 0.36414 21.94 0.36414 21.5861V1.47785C0.36414 1.06153 0.384956 0.666026 0.36414 0.270522C0.343324 -0.124982 0.405772 -8.30889e-05 0.613932 -8.30889e-05H2.94532C3.13267 -8.30889e-05 3.19511 0.0831802 3.19511 0.249708C3.18479 0.339616 3.18479 0.430409 3.19511 0.520317V19.1298Z" fill="black"/>
</g>
<defs>
<clipPath id="clip0_1235_116">
<rect width="69.6087" height="50" fill="white"/>
</clipPath>
</defs>
</svg>
